<?xml version="1.0" encoding="utf-8"?>
<!-- Generator: Adobe Illustrator 24.0.0, SVG Export Plug-In . SVG Version: 6.00 Build 0)  -->
<svg version="1.1" id="Layer_1" xmlns="http://www.w3.org/2000/svg" xmlns:xlink="http://www.w3.org/1999/xlink" x="0px" y="0px"
	 viewBox="0 0 256 256" style="enable-background:new 0 0 256 256;" xml:space="preserve">
<style type="text/css">
	.st0{fill:#FFB69F;}
	.st1{fill:#72C2E9;}
	.st2{fill:#C2E5FF;}
	.st3{fill:#FC5D3D;}
	.st4{fill:#AFAFAF;}
	.st5{fill:#FFCBC3;}
	.st6{fill:#F0C020;}
	.st7{fill:#F8E5B0;}
	.st8{fill:#EFEFEF;}
	.st9{fill:#EEC21E;}
	.st10{fill:#FFFFFF;}
	.st11{fill:#F1BF21;}
	.st12{fill:#E8A61E;}
	.st13{fill:#7D7B79;}
	.st14{fill:#B34F33;}
	.st15{fill:#F8E5B2;}
	.st16{fill:#C5E5FE;}
	.st17{fill:#4C4944;}
	.st18{fill:#4BA5C8;}
	.st19{fill:#AFAEAF;}
	.st20{fill:#CF941C;}
	.st21{fill:#7C7B7A;}
	.st22{fill:#FAE0E1;}
	.st23{fill:#13BF6D;}
	.st24{fill:#76FFBB;}
	.st25{fill:#F2E1D7;}
	.st26{fill:#878787;}
	.st27{fill:#F9E5AF;}
	.st28{fill:#E8A61F;}
	.st29{fill:none;stroke:#000000;stroke-width:5;stroke-linecap:round;stroke-linejoin:round;stroke-miterlimit:10;}
	.st30{fill:#EFEFF0;}
	.st31{fill:#E8A61B;}
	.st32{fill:#EFEFEE;}
	.st33{fill:#4C4945;}
	.st34{fill:#EA8F7D;}
	.st35{fill:#D6C0B3;}
	.st36{fill:#EEC120;}
</style>
<g>
</g>
<g>
	<path class="st4" d="M225.98,26.023h-10.83v-5.583c0-2.77-2.24-5-5-5h-30.16c0.04,0.23,0.06,0.47,0.06,0.71v49.65
		c0,7.19-5.83,13.02-13.01,13.02c-7.19,0-13.01-5.83-13.01-13.02v-34.66c0,17.21-26.03,17.19-26.03,0v7c0,17.21-26.03,17.19-26.03,0
		v17.62c0,7.16-5.8,13.01-13.01,13.01c-7.18,0-13.01-5.83-13.01-13.01v-39.61c0-0.24,0.02-0.48,0.06-0.71H45.85c-2.76,0-5,2.23-5,5
		v5.583H30.02c-2.77,0-5,2.24-5,5v12.5c0,2.76,2.23,5,5,5h10.83v191.328c0,2.76,2.24,5,5,5h164.3c2.76,0,5-2.24,5-5V48.523h10.83
		c2.77,0,5-2.24,5-5v-12.5C230.98,28.263,228.75,26.023,225.98,26.023z"/>
	<path class="st8" d="M205.15,237.356H66.733c-1.381,0-2.5-1.119-2.5-2.5s1.119-2.5,2.5-2.5H202.65V47.273
		c0-1.381,1.119-2.5,2.5-2.5s2.5,1.119,2.5,2.5v187.583C207.65,236.237,206.531,237.356,205.15,237.356z M56.733,237.356H50.85
		c-1.381,0-2.5-1.119-2.5-2.5s1.119-2.5,2.5-2.5h5.884c1.381,0,2.5,1.119,2.5,2.5S58.114,237.356,56.733,237.356z"/>
	<path class="st9" d="M195.5,105.804v69.5c0,2.761-2.239,5-5,5h-125c-2.761,0-5-2.239-5-5v-69.5c0-2.761,2.239-5,5-5h45.66
		c-4.12,7.83-7.38,15.56-7.38,20.46c0,13.37,10.84,24.22,24.22,24.22s24.22-10.85,24.22-24.22c0-4.9-3.26-12.63-7.38-20.46h45.66
		C193.261,100.804,195.5,103.042,195.5,105.804z"/>
	<path class="st3" d="M152.22,121.264c0,13.37-10.84,24.22-24.22,24.22s-24.22-10.85-24.22-24.22c0-4.9,3.26-12.63,7.38-20.46
		c7.12-13.52,16.84-27.32,16.84-27.32s9.72,13.8,16.84,27.32C148.96,108.634,152.22,116.363,152.22,121.264z"/>
	<path class="st5" d="M128,137.983c-1.381,0-2.5-1.119-2.5-2.5s1.119-2.5,2.5-2.5c0.925,0,1.847-0.108,2.739-0.322
		c1.337-0.329,2.692,0.504,3.014,1.848c0.322,1.343-0.505,2.691-1.848,3.014C130.632,137.828,129.317,137.983,128,137.983z
		 M137.992,131.673c-1.113-0.817-1.353-2.382-0.536-3.495c1.481-2.018,2.264-4.408,2.264-6.914
		c-0.328-5.9-10.511-22.923-13.842-28.264c-0.73-1.172-0.373-2.714,0.798-3.444c1.171-0.732,2.713-0.374,3.444,0.798
		c3.629,5.817,14.6,24.05,14.6,30.91c0,3.578-1.118,6.992-3.232,9.873C140.67,132.248,139.107,132.49,137.992,131.673z"/>
	<path class="st3" d="M100.178,151.463c0,6.284-5.095,11.379-11.379,11.379s-11.379-5.095-11.379-11.379
		s11.379-22.444,11.379-22.444S100.178,145.179,100.178,151.463z"/>
	<path class="st3" d="M178.58,151.463c0,6.284-5.095,11.379-11.379,11.379s-11.379-5.095-11.379-11.379s11.379-22.444,11.379-22.444
		S178.58,145.179,178.58,151.463z"/>
	<path class="st8" d="M164.201,225.527H91.799c-1.657,0-3-1.343-3-3v-12c0-1.657,1.343-3,3-3h72.402c1.657,0,3,1.343,3,3v12
		C167.201,224.184,165.858,225.527,164.201,225.527z"/>
	<path class="st3" d="M164.201,225.527H91.799c-1.657,0-3-1.343-3-3v-12c0-1.657,1.343-3,3-3h72.402c1.657,0,3,1.343,3,3v12
		C167.201,224.184,165.858,225.527,164.201,225.527z"/>
	<path class="st5" d="M157.786,219.017h-46c-1.381,0-2.5-1.119-2.5-2.5s1.119-2.5,2.5-2.5h46c1.381,0,2.5,1.119,2.5,2.5
		S159.167,219.017,157.786,219.017z M101.786,219.017h-3.572c-1.381,0-2.5-1.119-2.5-2.5s1.119-2.5,2.5-2.5h3.572
		c1.381,0,2.5,1.119,2.5,2.5S103.167,219.017,101.786,219.017z"/>
	<path class="st3" d="M180.05,16.151v49.65c0,7.19-5.83,13.02-13.01,13.02c-7.19,0-13.01-5.83-13.01-13.02v-34.66
		c0,8.605-6.508,12.902-13.015,12.9S128,39.736,128,31.141v7c0,8.605-6.508,12.902-13.015,12.9
		c-6.508-0.002-13.015-4.305-13.015-12.9v17.62c0,7.16-5.8,13.01-13.01,13.01c-7.18,0-13.01-5.83-13.01-13.01v-39.61
		c0-0.24,0.02-0.48,0.06-0.71c0.34-2.42,2.42-4.29,4.94-4.29h94.1c2.52,0,4.6,1.87,4.94,4.29
		C180.03,15.671,180.05,15.911,180.05,16.151z"/>
	<path d="M240.41,163.15c-1.271-0.47-2.74,0.221-3.21,1.471c0,0,0,0.01-0.011,0.01c-0.472,1.295,0.187,2.733,1.49,3.21
		c1.416,0.503,2.771-0.283,3.21-1.48v-0.01C242.359,165.06,241.7,163.63,240.41,163.15z"/>
	<path d="M239.33,34.77h-5.851v-3.75c-0.01-4.13-3.37-7.489-7.5-7.5h-8.33v-3.08c-0.01-4.13-3.369-7.489-7.5-7.5h-28.337
		c-1.273-2.684-3.944-4.29-6.763-4.29h-94.1c-2.866,0-5.509,1.643-6.768,4.29H45.85c-4.13,0.011-7.49,3.37-7.5,7.5v3.08h-8.33
		c-4.13,0.011-7.489,3.37-7.5,7.5v3.75h-5.85c-4.13,0-7.5,3.37-7.5,7.5v96.25c0,24.09,10.618,46.631,29.18,62.029v39.301
		c0,4.13,3.37,7.5,7.5,7.5h127.57c1.37,0,2.49-1.12,2.49-2.5s-1.12-2.5-2.49-2.5H45.85c-1.37,0-2.5-1.13-2.5-2.5v-35.491
		c12.438,8.768,27.082,13.926,42.95,14.565v3.605c0,3.03,2.47,5.49,5.5,5.5h72.4c3.029-0.01,5.5-2.47,5.5-5.5v-3.579
		c15.316-0.634,30.168-5.589,42.949-14.594v35.493c0,1.37-1.119,2.5-2.5,2.5H193.42c-1.38,0-2.5,1.12-2.5,2.5s1.12,2.5,2.5,2.5
		h16.729c4.131,0,7.5-3.37,7.5-7.5v-39.303c8.239-6.823,15.07-15.239,20.051-24.756c0.64-1.221,0.17-2.73-1.051-3.37
		c-1.216-0.645-2.72-0.179-3.38,1.05c-4.077,7.791-9.388,14.667-15.62,20.445V51.02h8.33c4.13,0,7.49-3.37,7.5-7.5v-3.75h5.851
		c1.38,0,2.5,1.12,2.5,2.5v96.25c0,5.681-0.63,11.351-1.88,16.84c-0.305,1.318,0.505,2.674,1.88,2.99
		c1.39,0.31,2.691-0.594,2.989-1.89c1.33-5.84,2.011-11.87,2.011-17.94V42.27C246.83,38.14,243.46,34.77,239.33,34.77z
		 M212.649,20.44c0,17.241,0-5.089,0,14.33h-30.1V17.94h27.6C211.53,17.94,212.649,19.06,212.649,20.44z M80.95,13.65h94.109
		c1.386,0,2.49,1.16,2.49,2.5V65.8c-0.01,5.79-4.73,10.51-10.51,10.52c-5.79-0.01-10.5-4.729-10.51-10.52c0-14.814,0-19.732,0-34.66
		c0-3.289-5-3.26-5,0c-0.041,6.637-4.726,10.4-10.5,10.4h-0.021c-5.738,0-10.47-3.715-10.51-10.4c0-3.247-5-3.353-5,0.101v6.899
		c-0.041,6.632-4.744,10.4-10.5,10.4h-0.021c-4.122,0-10.413-2.328-10.51-10.4c0-3.29-5-3.262-5,0c0,24.233,0,13.204,0,17.62
		c0,5.725-4.684,10.5-10.51,10.51c-5.818-0.01-10.5-4.769-10.51-10.51V16.15C78.45,14.775,79.572,13.65,80.95,13.65z M43.35,20.44
		c0-1.38,1.12-2.5,2.5-2.5H73.45v16.83H43.35C43.35,15.435,43.35,37.596,43.35,20.44z M27.52,31.02c0-1.38,1.12-2.5,2.5-2.5h8.33
		v17.5h-8.33c-1.38,0-2.5-1.12-2.5-2.5V31.02z M164.7,222.52c0,0.28-0.23,0.5-0.5,0.5H91.8c-0.28,0-0.5-0.22-0.5-0.49v-12.01
		c0-0.27,0.22-0.49,0.5-0.5h72.4c0.27,0.01,0.5,0.23,0.5,0.5V222.52z M169.7,213.95v-3.43c0-3.02-2.471-5.49-5.5-5.49H91.8
		c-3.03,0-5.5,2.471-5.5,5.49v3.408c-16.129-0.717-30.972-6.553-42.95-15.917V131.27c0-1.37-1.12-2.5-2.5-2.5s-2.5,1.13-2.5,2.5
		v62.485c-14.852-13.82-24.18-33.504-24.18-55.235V42.27c0-1.38,1.12-2.5,2.5-2.5h5.85v3.75c0.011,4.13,3.37,7.5,7.5,7.5h8.33v60.25
		c0,1.38,1.12,2.5,2.5,2.5s2.5-1.12,2.5-2.5v-0.01c0-14.531,0-54.988,0-71.49H73.45v15.99c0,8.319,6.738,15.51,15.51,15.51
		c8.439,0,15.51-6.891,15.51-15.51v-6c2.911,2.515,6.809,3.78,10.521,3.78c7.033,0,13.275-4.188,15.02-11.221
		c2.994,2.805,6.903,4.21,11.01,4.221c3.971-0.011,7.7-1.34,10.511-3.771V65.8c0,8.56,6.96,15.52,15.51,15.52
		s15.51-6.96,15.51-15.52V39.77h30.1c0,4.342,0,150.295,0,158.385C200.495,207.6,185.562,213.25,169.7,213.95z M228.479,43.52
		c0,1.38-1.12,2.5-2.5,2.5h-8.33v-17.5h8.33c1.38,0,2.5,1.12,2.5,2.5V43.52z"/>
	<path d="M142.729,137.22c-1.055,0.992-1.043,2.557-0.14,3.54c0.912,0.989,2.491,1.089,3.53,0.14c1.01-0.939,1.08-2.52,0.14-3.54
		C145.359,136.39,143.7,136.32,142.729,137.22z"/>
	<path d="M90.92,127.69c-0.04-0.06-0.07-0.1-0.08-0.109c-0.47-0.67-1.23-1.061-2.04-1.061c-0.82,0-1.58,0.391-2.04,1.061
		c-1,0.968-11.748,17.101-11.84,23.88c0,7.649,6.229,13.88,13.88,13.88s13.88-6.23,13.88-13.88
		C102.594,145.192,94.512,132.882,90.92,127.69z M88.8,160.34c-4.89-0.01-8.87-3.99-8.88-8.88c-0.125-3.83,6.758-14.746,8.88-17.97
		c2.06,3.122,9.076,14.234,8.88,17.97C97.67,156.35,93.68,160.331,88.8,160.34z"/>
	<path d="M169.25,127.581c-0.994-1.418-3.122-1.409-4.09,0l-0.021,0.02c-3.574,5.145-11.735,17.584-11.82,23.86
		c0,7.649,6.23,13.88,13.881,13.88c7.649,0,13.88-6.23,13.88-13.88C180.978,144.005,169.25,127.581,169.25,127.581z M167.2,160.34
		c-4.891-0.01-8.87-3.99-8.881-8.88c-0.12-3.819,6.763-14.752,8.881-17.97c2.055,3.117,9.073,14.231,8.88,17.97
		C176.069,156.35,172.09,160.331,167.2,160.34z"/>
	<path d="M190.5,98.303h-44.163c-6.339-11.776-15.493-25.262-16.297-26.263c-1.051-1.509-3.287-1.321-4.12,0.05
		c-0.985,1.419-9.556,13.763-16.257,26.213H65.5c-4.136,0-7.5,3.364-7.5,7.5v69.5c0,4.136,3.364,7.5,7.5,7.5h125
		c4.136,0,7.5-3.364,7.5-7.5v-69.5C198,101.667,194.636,98.303,190.5,98.303z M193,175.303c0,1.379-1.121,2.5-2.5,2.5h-125
		c-1.379,0-2.5-1.121-2.5-2.5v-69.5c0-1.379,1.121-2.5,2.5-2.5h41.593c-3.064,6.22-5.747,12.787-5.813,17.957
		c0,14.77,11.943,26.72,26.72,26.72c2.99,0,5.92-0.489,8.729-1.46c1.25-0.417,2.011-1.827,1.54-3.17c-0.439-1.27-1.89-2-3.18-1.55
		c-2.271,0.78-4.65,1.18-7.09,1.18c-11.95-0.02-21.7-9.77-21.72-21.72c-0.191-9.842,16.206-35.154,21.72-43.36
		c5.479,8.127,21.911,33.528,21.72,43.36c0,3.04-0.61,5.97-1.82,8.72c-0.557,1.262,0.025,2.73,1.29,3.29
		c1.23,0.54,2.75-0.06,3.29-1.29c1.49-3.38,2.24-6.989,2.24-10.72c-0.067-5.17-2.75-11.737-5.813-17.957H190.5
		c1.379,0,2.5,1.121,2.5,2.5V175.303z"/>
	<circle cx="183.42" cy="244.85" r="2.5"/>
	<circle cx="40.85" cy="121.27" r="2.5"/>
</g>
</svg>
