<?xml version="1.0" encoding="UTF-8"?>
<!DOCTYPE svg PUBLIC "-//W3C//DTD SVG 1.1//EN" "http://www.w3.org/Graphics/SVG/1.1/DTD/svg11.dtd">
<!-- Creator: CorelDRAW -->
<svg xmlns="http://www.w3.org/2000/svg" xml:space="preserve" width="2048px" height="2048px" style="shape-rendering:geometricPrecision; text-rendering:geometricPrecision; image-rendering:optimizeQuality; fill-rule:evenodd; clip-rule:evenodd"
viewBox="0 0 2048 2048"
 xmlns:xlink="http://www.w3.org/1999/xlink">
 <defs>
  <style type="text/css">
   <![CDATA[
    .fil3 {fill:none}
    .fil1 {fill:#D5613D}
    .fil0 {fill:#FF7043}
    .fil2 {fill:#FFE0B2}
   ]]>
  </style>
 </defs>
 <g id="Layer_x0020_1">
  <metadata id="CorelCorpID_0Corel-Layer"/>
  <g id="_360993584">
   <polygon id="_360993992" class="fil0" points="1024,255.999 1356.55,448.001 1689.11,640.001 1689.11,1024 1689.11,1408 1356.55,1600 1024,1792 691.446,1600 358.892,1408 358.892,1024 358.892,640.001 691.446,448.001 "/>
   <polygon id="_360993896" class="fil1" points="1024,415.999 1287.27,568 1550.54,720.001 1550.54,1024 1550.54,1328 1287.27,1480 1024,1632 760.727,1480 497.456,1328 497.456,1024 497.456,720.001 760.727,568 "/>
   <path id="_360993704" class="fil2" d="M1127.57 723.999c15.352,-18.5941 23.1355,-41.2973 23.1355,-68.3245 0,-16.2165 -5.40473,-29.6221 -16.4315,-40.6489 -11.028,-11.0268 -24.6496,-16.4339 -41.2985,-16.4339 -20.5394,0 -38.9197,9.29883 -54.7028,27.8929 -15.7831,18.5941 -23.7839,39.7843 -23.7839,64.0004 0,18.163 5.18859,32.8654 15.7831,44.3256 10.5957,11.4591 24.4323,17.0799 41.2973,17.0799 21.8398,0 40.65,-9.29764 56.0008,-27.8918z"/>
   <path id="_360993680" class="fil2" d="M1086.92 1100.87c2.37756,-15.5681 6.05315,-36.9721 10.5945,-63.9993 13.6205,-80.2182 20.3232,-127.784 20.3232,-142.488 0,-15.1347 -3.02599,-26.5925 -8.86418,-34.161 -5.83701,-7.56851 -14.9185,-11.4602 -27.2433,-11.4602 -18.5953,0 -44.3244,13.1906 -77.4071,39.3508 -32.8642,26.1626 -68.9717,62.2725 -108.324,108.757l19.6772 19.0288c14.4851,-15.5693 26.3764,-27.0284 36.1075,-34.1634 9.72875,-7.13504 17.9445,-10.8106 24.6473,-10.8106 4.3252,0 7.56733,1.94528 9.94725,5.62205 2.37874,3.89055 3.45945,9.29646 3.45945,16.6488 0,38.7024 -10.3784,105.082 -31.1351,198.487 -20.9729,93.6225 -31.3512,162.379 -31.3512,206.488 0,17.7307 2.80984,30.7028 8.64804,38.9185 5.62205,8.21694 14.4862,12.326 26.8122,12.326 21.8362,0 49.7292,-13.839 83.4579,-41.7307 33.7299,-27.8918 68.9741,-66.5953 105.731,-116.11l-20.9729 -17.0799c-12.541,15.1358 -23.5689,26.5949 -32.8654,34.1622 -9.29764,7.56733 -16.8662,11.4591 -22.702,11.4591 -5.83819,0 -10.1634,-2.1626 -12.9744,-6.2693 -2.80984,-4.3252 -4.10788,-10.8106 -4.10788,-19.6772 0,-7.13386 2.59606,-28.1079 7.56733,-62.7024 5.18977,-34.5957 12.1087,-78.2705 20.974,-130.596z"/>
  </g>
 </g>
 <rect class="fil3" width="2048" height="2048"/>
</svg>
