<svg id="visual" viewBox="0 0 960 540" width="960" height="540" xmlns="http://www.w3.org/2000/svg" xmlns:xlink="http://www.w3.org/1999/xlink" version="1.1"><path d="M0 109L120 109L120 125L240 125L240 98L360 98L360 93L480 93L480 39L600 39L600 44L720 44L720 87L840 87L840 93L960 93L960 98L960 0L960 0L840 0L840 0L720 0L720 0L600 0L600 0L480 0L480 0L360 0L360 0L240 0L240 0L120 0L120 0L0 0Z" fill="#ad5389"></path><path d="M0 249L120 249L120 271L240 271L240 255L360 255L360 174L480 174L480 147L600 147L600 271L720 271L720 152L840 152L840 244L960 244L960 179L960 96L960 91L840 91L840 85L720 85L720 42L600 42L600 37L480 37L480 91L360 91L360 96L240 96L240 123L120 123L120 107L0 107Z" fill="#984f7a"></path><path d="M0 293L120 293L120 309L240 309L240 330L360 330L360 255L480 255L480 212L600 212L600 303L720 303L720 239L840 239L840 325L960 325L960 228L960 177L960 242L840 242L840 150L720 150L720 269L600 269L600 145L480 145L480 172L360 172L360 253L240 253L240 269L120 269L120 247L0 247Z" fill="#834a6b"></path><path d="M0 363L120 363L120 411L240 411L240 428L360 428L360 379L480 379L480 390L600 390L600 384L720 384L720 368L840 368L840 444L960 444L960 363L960 226L960 323L840 323L840 237L720 237L720 301L600 301L600 210L480 210L480 253L360 253L360 328L240 328L240 307L120 307L120 291L0 291Z" fill="#6e455c"></path><path d="M0 406L120 406L120 438L240 438L240 471L360 471L360 438L480 438L480 417L600 417L600 422L720 422L720 406L840 406L840 465L960 465L960 422L960 361L960 442L840 442L840 366L720 366L720 382L600 382L600 388L480 388L480 377L360 377L360 426L240 426L240 409L120 409L120 361L0 361Z" fill="#5a3f4e"></path><path d="M0 476L120 476L120 514L240 514L240 514L360 514L360 514L480 514L480 471L600 471L600 476L720 476L720 476L840 476L840 498L960 498L960 482L960 420L960 463L840 463L840 404L720 404L720 420L600 420L600 415L480 415L480 436L360 436L360 469L240 469L240 436L120 436L120 404L0 404Z" fill="#463940"></path><path d="M0 541L120 541L120 541L240 541L240 541L360 541L360 541L480 541L480 541L600 541L600 541L720 541L720 541L840 541L840 541L960 541L960 541L960 480L960 496L840 496L840 474L720 474L720 474L600 474L600 469L480 469L480 512L360 512L360 512L240 512L240 512L120 512L120 474L0 474Z" fill="#333333"></path></svg>