<?xml version="1.0" encoding="UTF-8"?>
<!DOCTYPE svg PUBLIC "-//W3C//DTD SVG 1.1//EN" "http://www.w3.org/Graphics/SVG/1.1/DTD/svg11.dtd">
<!-- Creator: CorelDRAW -->
<svg xmlns="http://www.w3.org/2000/svg" xml:space="preserve" width="2048px" height="2048px" style="shape-rendering:geometricPrecision; text-rendering:geometricPrecision; image-rendering:optimizeQuality; fill-rule:evenodd; clip-rule:evenodd"
viewBox="0 0 2048 2048"
 xmlns:xlink="http://www.w3.org/1999/xlink">
 <defs>
  <style type="text/css">
   <![CDATA[
    .fil1 {fill:none}
    .fil0 {fill:#424242}
    .fil2 {fill:white}
   ]]>
  </style>
 </defs>
 <rect class="fil0" width="2048" height="2048"/>
 <g id="Layer_x0020_1">
  <metadata id="CorelCorpID_0Corel-Layer"/>
  <rect class="fil1" width="2048" height="2048"/>
  <rect class="fil1" x="255.999" y="255.999" width="1536" height="1536"/>
  <rect class="fil1" x="256" y="255.999" width="1536" height="1536"/>
  <g id="_253498672">
   <rect id="_253498936" class="fil1" x="256" y="255.999" width="1536" height="1536"/>
   <path id="_253498864" class="fil2" d="M1161.23 546.025l35.0481 12.9118c-2.77087,25.5189 -1.90512,51.5304 2.89725,77.4296l-33.7725 15.5587c-21.1595,9.71103 -30.3898,34.8118 -20.6551,55.9713l19.7398 42.8103c9.71576,21.1465 34.7988,30.4335 55.8957,20.6551l33.8351 -15.5539c16.5496,20.4851 35.7272,38.0705 56.9493,52.5886l-12.9118 34.9193c-8.06103,21.8374 3.13347,46.1351 24.9083,54.1949l44.2737 16.3583c21.1016,7.74686 46.3725,-3.87048 54.1335,-24.9095l12.9118 -34.9996c25.5201,2.70945 51.5304,1.7811 77.4296,-2.94567l15.5587 33.7595c9.71221,21.1595 34.8118,30.3886 55.9087,20.6729l42.8729 -19.6819c21.0839,-9.77481 30.3721,-34.8744 20.6599,-55.9725l-15.5587 -33.7713c20.4236,-16.5945 38.0705,-35.7898 52.5886,-57.0119l34.9193 12.9248c21.1016,7.87323 46.3855,-3.76181 54.1961,-24.9083l16.2945 -44.2878c1.72205,-4.62756 2.59725,-9.42166 2.64685,-14.2016l0 -0.512599c-0.00944883,-5.97638 -1.31221,-11.9303 -3.87402,-17.5181 -4.73977,-10.2024 -13.1622,-18.013 -23.6811,-21.8823l-35.0622 -12.9295c2.83347,-25.5201 1.91929,-51.593 -2.88307,-77.4308l33.8209 -15.5575c21.0969,-9.71221 30.3272,-34.813 20.6729,-55.9099l-19.8071 -42.8587c-9.71103,-21.1595 -34.7492,-30.3851 -55.8461,-20.6693l-33.8847 15.5539c-16.5449,-20.4673 -35.7402,-38.0693 -56.8997,-52.5709l12.9248 -34.937c3.93662,-10.5815 3.45,-22.0299 -1.28976,-32.2323 -4.67717,-10.265 -13.0984,-18.0756 -23.6811,-21.9626l-44.2866 -16.3571c-10.5201,-3.87402 -21.9496,-3.43229 -32.2335,1.24016 -10.2024,4.72678 -17.9457,13.1492 -21.8823,23.7307l-12.9118 34.9996c-25.5378,-2.77205 -51.5481,-1.8437 -77.4343,2.89607l-15.5717 -33.7713c-9.71221,-21.098 -34.8118,-30.3898 -55.891,-20.6551l-42.8776 19.7268c-21.0969,9.72875 -30.3851,34.8118 -20.6055,55.9087l15.5717 33.8351c-20.4862,16.5307 -38.0752,35.7272 -52.5886,56.9493l-35.0044 -12.9744c-10.578,-3.87402 -22.0075,-3.44528 -32.2902,1.28976 -10.141,4.72678 -17.9516,13.1658 -21.8209,23.6811l-16.3748 44.2737c-8.04686,21.776 3.14646,46.0725 24.9225,54.1335zm231.858 -110.105c22.0736,-10.2024 45.5185,-15.3047 69.6863,-15.3047 64.8851,0 124.356,38.0705 151.482,96.9261 38.4319,83.5264 1.7811,182.719 -81.6839,221.169 -22.0748,10.2024 -45.5008,15.3165 -69.6107,15.3165 -64.8981,0 -124.364,-38.0209 -151.54,-96.9379 -38.4496,-83.5135 -1.79882,-182.719 81.6662,-221.169z"/>
   <path id="_253498792" class="fil2" d="M744.293 425.355l19.4906 7.19528c-1.52599,14.2016 -1.03583,28.7197 1.6689,43.1091l-18.8291 8.67638c-11.8099,5.4 -16.911,19.3654 -11.4921,31.1114l10.9429 23.8689c5.47678,11.8099 19.3784,16.9736 31.1256,11.4921l18.8788 -8.67166c9.2256,11.4437 19.8697,21.2221 31.6796,29.2831l-7.19528 19.4941c-4.48937,12.1217 1.77638,25.6453 13.9028,30.1347l24.6543 9.1004c11.7473,4.37835 25.774,-2.07992 30.1347,-13.8402l7.19528 -19.4941c14.2051,1.5437 28.7197,0.994489 43.1126,-1.65118l8.67166 18.8162c5.4189,11.7473 19.3843,16.911 31.1303,11.4921l23.8512 -11.0055c11.7473,-5.41418 16.9288,-19.3654 11.5099,-31.1126l-8.67638 -18.8291c11.3858,-9.2256 21.2268,-19.9193 29.2736,-31.7244l19.5036 7.1941c11.6847,4.36063 25.761,-2.09291 30.1394,-13.9016l9.1004 -24.6591c2.15551,-5.85591 1.9063,-12.2469 -0.677953,-17.9634 -2.64685,-5.6504 -7.3193,-10.0287 -13.2248,-12.1843l-19.4941 -7.20001c1.52599,-14.2016 1.03937,-28.6524 -1.60748,-43.1079l18.8351 -8.67638c11.7425,-5.40119 16.9063,-19.3654 11.4921,-31.1079l-11.0055 -23.8736c-5.4189,-11.7425 -19.3843,-16.9063 -31.1256,-11.4921l-18.8173 8.67638c-9.22442,-11.4484 -19.9323,-21.2221 -31.741,-29.2866l7.1941 -19.428c2.15551,-5.90552 1.9063,-12.2965 -0.677953,-18.0272 -2.64213,-5.65394 -7.30158,-10.0146 -13.2248,-12.1701l-24.5918 -9.1004c-5.90434,-2.16024 -12.3,-1.9063 -17.9681,0.673229 -5.713,2.64685 -10.0724,7.3063 -12.2327,13.1669l-7.13268 19.552c-14.2642,-1.6063 -28.715,-1.05236 -43.1717,1.58977l-8.67638 -18.8126c-5.3504,-11.7461 -19.3784,-16.9099 -31.063,-11.4969l-23.9173 11.0067c-11.7425,5.41772 -16.9063,19.3689 -11.5063,31.1114l8.67284 18.8965c-11.3811,9.163 -21.1606,19.852 -29.2075,31.6618l-19.5083 -7.1941c-5.90434,-2.20512 -12.2953,-1.9063 -17.9457,0.673229 -5.73071,2.64685 -10.0287,7.32402 -12.2516,13.2284l-9.0378 24.6543c-4.48465,12.1264 1.73268,25.65 13.8402,30.1524zm129.091 -61.3264c12.3142,-5.6504 25.35,-8.54764 38.8111,-8.54764 36.1063,0 69.2623,21.2221 84.3308,54.0036 21.4583,46.4965 1.03937,101.727 -45.4571,123.124 -12.2965,5.65394 -25.3465,8.55119 -38.7437,8.55119 -36.1689,0 -69.2634,-21.2268 -84.3804,-54.0036 -21.4134,-46.4965 -0.989765,-101.727 45.4394,-123.128z"/>
   <path id="_253498744" class="fil2" d="M302.335 1167.33l58.8556 21.6945c-4.67717,42.9355 -3.13347,86.6599 4.92756,130.211l-56.8382 26.1366c-35.491,16.2945 -51.0437,58.5508 -34.6866,94.1044l33.1429 72.0154c16.3748,35.491 58.493,51.1075 93.9839,34.7504l56.8819 -26.2607c27.8717,34.4327 60.1619,64.0182 95.7154,88.4363l-21.7134 58.8095c-13.4788,36.6508 5.28898,77.4792 41.9445,91.0205l74.4083 27.5504c35.491,13.037 77.9398,-6.51615 91.0383,-41.9433l21.6957 -58.8685c42.9343,4.61457 86.6599,3.08386 130.211,-4.91339l26.1981 56.7615c16.2945,35.5524 58.4941,51.1063 93.9839,34.7492l72.0792 -33.1429c35.4862,-16.3618 51.0449,-58.5556 34.7492,-94.0465l-26.2654 -56.8193c34.389,-27.8717 64.0193,-60.1489 88.441,-95.8276l58.7434 21.776c35.4862,13.1658 77.9209,-6.39095 91.0831,-41.8819l27.4252 -74.4851c6.58347,-17.7756 5.84292,-37.017 -2.09291,-54.1819 -7.93465,-17.2228 -22.1362,-30.3213 -39.7843,-36.776l-58.8544 -21.7748c4.65945,-42.8729 3.13347,-86.7225 -4.9937,-130.211l56.8867 -26.1366c35.4898,-16.3606 51.0615,-58.5414 34.6996,-93.965l-33.1559 -72.1418c-16.3571,-35.4284 -58.5556,-51.0626 -94.0418,-34.7008l-56.8241 26.1981c-27.854,-34.4327 -60.1453,-64.0182 -95.7603,-88.3772l21.7134 -58.7882c6.57756,-17.7768 5.83701,-37.0347 -2.09764,-54.2445 -7.86851,-17.1602 -22.0701,-30.2599 -39.7843,-36.8433l-74.4272 -27.4878c-17.7768,-6.52087 -37.017,-5.79331 -54.1772,2.07992 -17.2276,7.93465 -30.3272,22.0878 -36.8433,39.8646l-21.7748 58.8544c-42.8599,-4.67717 -86.6599,-3.13347 -130.193,4.90985l-26.1366 -56.8205c-16.3748,-35.4898 -58.5556,-51.1111 -94.0453,-34.7492l-72.0166 33.2055c-35.5536,16.3571 -51.0579,58.493 -34.6831,94.0418l26.1319 56.8241c-34.3843,27.8681 -64.0323,60.1004 -88.3879,95.7107l-58.7918 -21.7701c-17.7768,-6.52087 -37.0311,-5.78032 -54.241,2.1378 -17.165,7.93465 -30.2634,22.0925 -36.7796,39.8055l-27.4925 74.4721c-13.5413,36.5929 5.29252,77.4969 41.9433,91.0383zm389.749 -185.192c37.2048,-17.0351 76.5697,-25.7114 117.157,-25.7114 109.114,0 209.042,63.9556 254.691,163.037 64.63,140.363 3.06614,307.149 -137.281,371.797 -37.0796,17.0988 -76.506,25.7575 -117.093,25.7575 -109.114,0.00354331 -209.123,-63.952 -254.753,-162.975 -64.5851,-140.472 -3.02126,-307.213 137.28,-371.906z"/>
  </g>
 </g>
</svg>
