<?xml version="1.0" encoding="iso-8859-1"?>
<!-- Generator: Adobe Illustrator 19.0.0, SVG Export Plug-In . SVG Version: 6.00 Build 0)  -->
<svg version="1.1" id="Layer_1" xmlns="http://www.w3.org/2000/svg" xmlns:xlink="http://www.w3.org/1999/xlink" x="0px" y="0px"
	 viewBox="0 0 511.999 511.999" style="enable-background:new 0 0 511.999 511.999;" xml:space="preserve">
<path style="fill:#298983;" d="M378.323,255.997l-32.381-32.351l-53.851,0.026v-0.053l-126.12,0.059l-32.295,32.324l32.381,32.351
	l126.063-0.059c0.001,0,0.002,0,0.003,0c0.304,0,0.602,0.02,0.897,0.053l53.008-0.025L378.323,255.997z"/>
<rect x="337.088" y="158.11" transform="matrix(-0.7074 -0.7068 0.7068 -0.7074 516.4164 594.677)" style="fill:#A5F2E5;" width="88.416" height="64.678"/>
<path d="M509.637,250.111L378.603,119.2c-3.154-3.151-8.267-3.15-11.418,0.005l-57.125,57.179c-1.514,1.515-2.363,3.569-2.362,5.71
	c0.001,2.141,0.853,4.194,2.367,5.708l19.721,19.703l-36.803,0.017c-0.295-0.032-0.593-0.053-0.897-0.053c-0.001,0-0.002,0-0.003,0
	l-109.971,0.052l19.759-19.778c3.152-3.154,3.149-8.267-0.005-11.418L144.688,119.2c-3.155-3.151-8.268-3.15-11.418,0.005
	l-31.947,31.977c-3.152,3.154-3.149,8.267,0.005,11.418l0,0c3.154,3.151,8.267,3.15,11.418-0.005l26.241-26.264l45.754,45.711
	L65.243,301.653l-45.754-45.712l61.648-61.707c3.152-3.154,3.149-8.267-0.005-11.418l0,0c-3.154-3.151-8.267-3.15-11.418,0.005
	L2.357,250.239c-1.605,1.606-2.388,3.719-2.357,5.824c-0.029,2.105,0.756,4.219,2.362,5.824l131.034,130.911
	c1.576,1.575,3.641,2.362,5.707,2.362c2.067,0,4.135-0.789,5.712-2.367l57.125-57.179c1.514-1.515,2.363-3.569,2.362-5.71
	c-0.001-2.141-0.853-4.194-2.367-5.708l-19.721-19.703l36.814-0.017c0.293,0.032,0.588,0.053,0.885,0.053c0.001,0,0.002,0,0.003,0
	l109.971-0.052l-19.758,19.777c-3.152,3.154-3.149,8.267,0.005,11.418l57.179,57.125c1.576,1.575,3.641,2.362,5.707,2.362
	c2.067,0,4.135-0.789,5.712-2.367l31.946-31.977c3.152-3.154,3.149-8.267-0.005-11.418l0,0c-3.154-3.151-8.267-3.15-11.418,0.005
	l-26.241,26.264l-45.754-45.711l119.497-119.611l45.754,45.712l-61.648,61.707c-3.152,3.154-3.149,8.267,0.005,11.418l0,0
	c3.154,3.151,8.267,3.15,11.418-0.005l67.355-67.419c1.605-1.606,2.388-3.719,2.357-5.824
	C512.028,253.831,511.244,251.716,509.637,250.111z M389.736,244.573l-62.546-62.488l45.712-45.754l62.546,62.488L389.736,244.573z
	 M293.021,288.347c-0.295-0.032-0.593-0.053-0.897-0.053c-0.001,0-0.002,0-0.003,0l-126.062,0.059l-32.383-32.351l32.294-32.325
	l126.12-0.059v0.053l53.851-0.026l32.381,32.351l-32.294,32.325L293.021,288.347z M76.551,313.181l45.712-45.755l62.546,62.488
	l-45.712,45.754L76.551,313.181z"/>
<path style="fill:#62D9C7;" d="M430.864,317.765l61.648-61.707l-45.754-45.712L327.259,329.957l45.754,45.711l26.241-26.264
	c3.151-3.155,8.264-3.156,11.418-0.005l0,0l20.196-20.215l0,0C427.714,326.031,427.712,320.919,430.864,317.765z"/>
<rect x="98.33" y="277.355" transform="matrix(-0.7068 0.7074 -0.7074 -0.7068 450.5027 456.4097)" style="fill:#A5F2E5;" width="64.678" height="88.416"/>
<path style="fill:#62D9C7;" d="M81.136,194.234l-61.648,61.707l45.754,45.712l119.498-119.611l-45.754-45.711l-26.241,26.264
	c-3.151,3.155-8.264,3.156-11.418,0.005l0,0L81.13,182.816l0,0C84.286,185.967,84.288,191.08,81.136,194.234z"/>
<g>
</g>
<g>
</g>
<g>
</g>
<g>
</g>
<g>
</g>
<g>
</g>
<g>
</g>
<g>
</g>
<g>
</g>
<g>
</g>
<g>
</g>
<g>
</g>
<g>
</g>
<g>
</g>
<g>
</g>
</svg>
